<svg width="66" height="49" fill="none" xmlns="http://www.w3.org/2000/svg"><path d="M45.5 26.5 30.3409 15M45.5 26.5l-13 9.3509m13-9.3509L59 35.8509M2.5 35.5 17 47l15.5-11.1491M2.5 35.5V15l14-10.5.5.37931M2.5 35.5l14.939-11M30.3409 15 17.439 24.5M30.3409 15 17 4.87931M30.3409 15 45.5 4l4 5.5m-32.061 15L17 4.87931M32.5 35.8509 45.5 46.5 59 35.8509m0 0V12.5" stroke="#31AFE9" stroke-width="4" stroke-linejoin="round"/><path fill="#31AFE9" d="M51 11h4v4h-4zM52 1h7v7h-7V1ZM61 0h4v4h-4V0ZM62 8h4v4h-4V8Z"/></svg>