<svg width="644" height="350" fill="none" xmlns="http://www.w3.org/2000/svg"><g clip-path="url(#a)"><path d="M324.067 350c174.625 0 316.188-9.366 316.188-20.921 0-11.554-141.563-20.92-316.188-20.92-174.626 0-316.189 9.366-316.189 20.92C7.878 340.634 149.441 350 324.067 350Z" fill="#F2F2F2"/><path d="M311.948 100.052c-51.516 0-88.504 33.033-88.504 110.109 0 87.353 36.988 110.476 88.504 110.476 51.515 0 90.706-25.325 90.706-110.476 0-91.024-39.191-110.109-90.706-110.109Zm.338 191.59c-35.681 0-54.322-20.922-54.322-81.425 0-53.384 19.404-81.537 55.085-81.537s55.085 18.492 55.085 81.537c0 58.978-20.167 81.425-55.848 81.425Z" fill="#2F2E41"/><path d="M192.597 259.71h-21.3v-62.687a12.55 12.55 0 0 0-3.679-8.877 12.567 12.567 0 0 0-8.882-3.677h-4.991a12.568 12.568 0 0 0-11.605 7.75 12.553 12.553 0 0 0-.956 4.804v62.687H81.105a7.17 7.17 0 0 1-6.34-10.515l63.587-120.283a12.553 12.553 0 0 0-5.743-17.217l-3.754-1.771a12.567 12.567 0 0 0-16.441 5.433L34.862 260.354a17.014 17.014 0 0 0 2.977 20.062 17.04 17.04 0 0 0 12.044 4.986h91.301v39.64a15.038 15.038 0 0 0 4.41 10.641 15.072 15.072 0 0 0 10.647 4.407 15.062 15.062 0 0 0 13.91-9.289 15.038 15.038 0 0 0 1.146-5.759v-39.64h21.3c3.409 0 6.678-1.353 9.088-3.762a12.841 12.841 0 0 0 0-18.167 12.855 12.855 0 0 0-9.088-3.763ZM587.006 259.71h-21.3v-62.687a12.55 12.55 0 0 0-3.679-8.877 12.564 12.564 0 0 0-8.882-3.677h-4.991a12.568 12.568 0 0 0-11.605 7.75 12.553 12.553 0 0 0-.956 4.804v62.687h-60.079a7.169 7.169 0 0 1-6.34-10.515l63.587-120.283a12.536 12.536 0 0 0 1.412-4.834 12.562 12.562 0 0 0-7.155-12.383l-3.753-1.771a12.564 12.564 0 0 0-16.442 5.433l-77.552 144.997a17.01 17.01 0 0 0 2.977 20.062 17.036 17.036 0 0 0 12.044 4.986h91.301v39.64a15.05 15.05 0 0 0 15.057 15.048c3.993 0 7.823-1.585 10.646-4.407a15.045 15.045 0 0 0 4.41-10.641v-39.64h21.3c3.409 0 6.678-1.353 9.088-3.762a12.841 12.841 0 0 0 0-18.167 12.855 12.855 0 0 0-9.088-3.763Z" fill="#2F49D1"/><path d="M198.472 252.37h-21.299v-62.687a12.55 12.55 0 0 0-7.755-11.599 12.562 12.562 0 0 0-4.806-.955h-4.991a12.56 12.56 0 0 0-12.561 12.554v62.687H86.98a7.17 7.17 0 0 1-6.34-10.515l63.587-120.283a12.546 12.546 0 0 0-1.71-14.197 12.567 12.567 0 0 0-4.032-3.02l-3.754-1.772a12.572 12.572 0 0 0-9.307-.567 12.554 12.554 0 0 0-7.134 6.001L40.737 253.014a17.017 17.017 0 0 0 2.977 20.062 17.035 17.035 0 0 0 12.044 4.986h91.302v39.639a15.034 15.034 0 0 0 4.409 10.641 15.05 15.05 0 0 0 10.647 4.408c3.993 0 7.823-1.586 10.647-4.408a15.046 15.046 0 0 0 4.41-10.641v-39.639h21.299a12.855 12.855 0 0 0 11.875-7.93 12.84 12.84 0 0 0-6.956-16.784 12.851 12.851 0 0 0-4.919-.978ZM598.023 252.37h-21.3v-62.687a12.56 12.56 0 0 0-12.561-12.554h-4.991a12.567 12.567 0 0 0-8.882 3.677 12.556 12.556 0 0 0-3.679 8.877v62.687h-60.079a7.175 7.175 0 0 1-6.141-3.468 7.164 7.164 0 0 1-.199-7.047l63.587-120.283a12.54 12.54 0 0 0 .81-9.835 12.56 12.56 0 0 0-6.553-7.382l-3.753-1.772a12.574 12.574 0 0 0-9.308-.567 12.56 12.56 0 0 0-7.134 6.001l-77.552 144.997a17.01 17.01 0 0 0 2.977 20.062 17.036 17.036 0 0 0 12.044 4.986h91.301v39.639c0 3.992 1.587 7.819 4.41 10.641a15.06 15.06 0 0 0 21.293 0 15.041 15.041 0 0 0 4.41-10.641v-39.639h21.3a12.855 12.855 0 0 0 11.875-7.93 12.842 12.842 0 0 0-2.786-13.999 12.855 12.855 0 0 0-9.089-3.763ZM323.7 93.445c-51.516 0-88.504 33.033-88.504 110.11 0 87.353 36.988 110.476 88.504 110.476 51.515 0 90.706-25.325 90.706-110.476 0-91.024-39.191-110.11-90.706-110.11Zm.338 191.59c-35.681 0-54.322-20.921-54.322-81.424 0-53.385 19.404-81.537 55.085-81.537s55.085 18.492 55.085 81.537c0 58.978-20.167 81.424-55.848 81.424Z" stroke="#161624" stroke-miterlimit="10"/><path d="M282.406 18.662a7.73 7.73 0 0 0 7.733-7.729 7.73 7.73 0 0 0-7.733-7.728 7.73 7.73 0 0 0-7.733 7.728 7.73 7.73 0 0 0 7.733 7.73Z" fill="#2F2E41"/><path d="M301.267 56.175c11.979 0 21.69-12.575 21.69-28.087 0-15.513-9.711-28.088-21.69-28.088-11.979 0-21.69 12.575-21.69 28.088 0 15.512 9.711 28.087 21.69 28.087Z" fill="#2F2E41"/><path opacity=".1" d="M301.267 47.692c-10.866 0-19.865-10.346-21.444-23.846a36.216 36.216 0 0 0-.246 4.242c0 15.512 9.711 28.087 21.69 28.087 11.979 0 21.69-12.575 21.69-28.087a36.216 36.216 0 0 0-.246-4.242c-1.579 13.5-10.578 23.846-21.444 23.846Z" fill="#000"/><path d="M345.405 110.343c-.466 1.913-2.475 3.445-4.699 4.516-4.677 2.251-10.445 2.922-16.04 3.148-1.427.086-2.859.06-4.283-.079a12.32 12.32 0 0 1-7.343-3.374 1.015 1.015 0 0 1-.457-.859 1.009 1.009 0 0 1 .484-.845c2.978-3.27 7.949-5.275 12.956-6.719 3.797-1.095 10.419-3.931 14.56-3.548 4.011.371 5.41 5.345 4.822 7.76Z" fill="#161624"/><path opacity=".1" d="M345.405 110.343c-.466 1.913-2.475 3.445-4.699 4.516-4.677 2.251-10.445 2.922-16.04 3.148-1.427.086-2.859.06-4.283-.079a12.32 12.32 0 0 1-7.343-3.374 1.015 1.015 0 0 1-.457-.859 1.009 1.009 0 0 1 .484-.845c2.978-3.27 7.949-5.275 12.956-6.719 3.797-1.095 10.419-3.931 14.56-3.548 4.011.371 5.41 5.345 4.822 7.76Z" fill="#000"/><path d="M285.944 96.045a11.838 11.838 0 0 0-.718 9.031 15.775 15.775 0 0 0 5.292 7.487c6.051 4.847 14.378 5.514 22.133 5.447a170.736 170.736 0 0 0 20.323-1.392c2.259-.2 4.478-.715 6.594-1.531 2.531-1.094 4.755-3.101 5.656-5.706.901-2.605.262-5.795-1.878-7.533-1.88-1.528-4.473-1.738-6.892-1.883l-13.839-.831c1.367-1.383 3.188-2.165 4.853-3.17 2.209-1.334 3.676-3.574 5.283-5.593a77.221 77.221 0 0 1 8.055-8.277c.45 2.582 2.085 4.702 4.008 6.484 1.924 1.782 4.141 3.216 6.141 4.913 4.842 4.108 8.329 9.685 13.422 13.479a26.27 26.27 0 0 0 9.619-4.8l-1.979-3.583a2.363 2.363 0 0 0-.746-.93c-.56-.345-1.283-.167-1.933-.265-1.739-.26-2.498-2.267-3.181-3.886-1.873-4.446-5.459-7.896-8.522-11.625a58.651 58.651 0 0 1-5.991-8.82c-1.029-1.858-1.971-3.793-3.368-5.393-1.396-1.601-3.352-2.86-5.477-2.864-1.878-.004-3.609.948-5.224 1.907a138.197 138.197 0 0 0-14.164 9.644c-2.364 1.834-4.713 3.772-7.486 4.897-1.167.474-2.398.797-3.518 1.373-1.962 1.01-3.451 2.717-5.054 4.232-5.717 5.406-13.544 8.908-21.409 9.188Z" fill="#161624"/><path d="M314.881 57.57a14.237 14.237 0 0 1-1.039 4.813 6.017 6.017 0 0 1-3.458 3.338 7.419 7.419 0 0 1-3.37.11 6.521 6.521 0 0 1-2.746-.935c-1.298-.892-1.945-2.483-2.181-4.04-.235-1.555-.13-3.144-.281-4.71a25.8 25.8 0 0 0-.72-3.748c-.102-.41-.206-.817-.308-1.224-.1-.407-.198-.814-.288-1.221a26.497 26.497 0 0 1-.227-1.154 17.939 17.939 0 0 1-.139-.984 11.02 11.02 0 0 0-.485-2.882 8.74 8.74 0 0 0-1.011-1.71c-.171-.245-.337-.49-.49-.745a3.529 3.529 0 0 1-.583-2.245 1.94 1.94 0 0 1 .14-.494 1.086 1.086 0 0 0 .737-.688 2.054 2.054 0 0 0-.089-1.065 6.75 6.75 0 0 0-.575-1.37c-.158-.287-.696-.803-.7-1.131-.007-.66 1.283-1.192 1.805-1.452a10.073 10.073 0 0 1 5.153-1.044c1.141.077 2.379.428 3.009 1.384.566.861.49 1.977.731 2.978a.88.88 0 0 0 .18.398.804.804 0 0 0 .443.203c.279.056.566.067.849.034h.002a2.976 2.976 0 0 0 1.441-.558 7.539 7.539 0 0 1 .735-.158c.945 2.98 1.068 6.175 1.841 9.21.383 1.51.932 3.002 1.009 4.555.006.068.008.137.009.207.012.5-.028 1.003-.007 1.5.007.225.032.448.075.668.085.354.19.703.315 1.044l.006.017a4.878 4.878 0 0 1 .153.573l.002.006c.139.833.16 1.681.062 2.52Z" fill="#FBBEBE"/><path d="M301.644 38.078c6.146 0 11.128-4.98 11.128-11.122 0-6.142-4.982-11.121-11.128-11.121s-11.128 4.979-11.128 11.121c0 6.143 4.982 11.122 11.128 11.122ZM372.294 87.554a18.224 18.224 0 0 0-3.138-8.449c.288 1.716.578 3.43.867 5.145a1.926 1.926 0 0 1-2.018-.62 6.203 6.203 0 0 1-1.058-1.963 40.371 40.371 0 0 0-4.921-8.828c-7.084-.59-14.087-3.525-20.317-6.946-6.232-3.42-12.064-7.52-18.212-11.084a26.141 26.141 0 0 0-3.324-1.697c-1.923-.771-4.083-1.17-5.907-2.077a9.49 9.49 0 0 1-.366-.19 7.525 7.525 0 0 1-1.165-.783 6.194 6.194 0 0 1-.559-.513 12.198 12.198 0 0 1-2.133-3.566c-.979-2.164-1.328-4.775-2.305-6.94.449-.419.954-.774 1.5-1.057h.002a7.18 7.18 0 0 1 2.148-.71 6.934 6.934 0 0 1 3.319.255c1.551.523 2.858 1.57 4.161 2.559a68.318 68.318 0 0 1 6.083 4.822c1.075 1.03 2.056 2.16 3.212 3.095a25.307 25.307 0 0 0 3.031 2.008c6.256 3.725 12.513 7.449 18.771 11.173 2.118 1.26 4.238 2.522 6.309 3.857 3.146 2.028 6.179 4.226 9.21 6.422l5.356 3.881c.586.374 1.1.849 1.518 1.403.37.63.6 1.33.674 2.056.448 2.933.195 5.93-.738 8.747Z" fill="#FBBEBE"/><path d="M317.64 65.934c-.75 3.365-4.153 5.4-5.931 8.355-2.211 3.668-1.309 7.932-.479 12.134l-4.552 3.92c-.837.717-1.675 1.44-2.576 2.075a34.435 34.435 0 0 1-4.112 2.36l-4.029 2.071a19.26 19.26 0 0 1-3.943 1.67c-2.647.68-5.457.204-8.075-.582a3.663 3.663 0 0 1-.883-.36 1.437 1.437 0 0 1-.418-.379 2.342 2.342 0 0 1-.266-1.521c.266-4.404 1.343-8.715 2.416-12.994a51.088 51.088 0 0 1 2.307-7.535 50.9 50.9 0 0 1 3.246-6.08 40.933 40.933 0 0 1 4.753-6.898c.884-.82 1.628-1.78 2.203-2.84.669-1.526.411-3.277.547-4.94.103-1.25.435-2.469.978-3.599v-.002a10.29 10.29 0 0 1 1.045-1.726l.549 1.276.359.835.46 1.07 1.316 3.064a12.942 12.942 0 0 0 2 3.561 3.9 3.9 0 0 0 3.478 1.634 3.898 3.898 0 0 0 3.189-2.145 12.744 12.744 0 0 0 1.362-3.602c.372-1.538.424-3.136.151-4.694-.455-3.001-1.732-6.066-2.66-8.854a8.98 8.98 0 0 1-.647-2.918 2.099 2.099 0 0 1 .051-.423 7.18 7.18 0 0 1 1.909-.592c.817 4.419 1.635 8.838 2.454 13.256l.058.313c.117.633.236 1.267.368 1.898.119.574.247 1.145.391 1.712l.005.017c.049.192.1.383.153.573l.002.006c.145.52.307 1.037.49 1.546 1.109 3.067 3.043 6.154 2.331 9.338Z" fill="#2F49D1"/><path d="M362.803 113.221c-.035.648.09 1.295.365 1.883.697 1.272 2.368 1.562 3.814 1.681 8.447.694 16.945.435 25.334-.772a2.926 2.926 0 0 0 1.29-.4c1.193-.836.457-2.873-.845-3.525-1.302-.652-2.848-.495-4.277-.777a13.466 13.466 0 0 1-4.003-1.735 202.428 202.428 0 0 1-8.567-5.205c-1.675-1.075-3.652-2.222-5.539-1.585-5.11 1.728-7.606 4.926-7.572 10.435Z" fill="#161624"/><path d="M300.533 49.717v.002c-.013.08-.026.157-.043.234a13.06 13.06 0 0 1-.07.386 46.159 46.159 0 0 1-.851 3.572c-.905 3.271-2.118 6.489-3.321 9.66l-9.689 25.507c-.815 2.14-1.628 4.284-2.554 6.382-.309.7-.628 1.405-.945 2.117-1.135 2.551-2.225 5.184-2.587 7.899a16.412 16.412 0 0 0-.115 5.416c.362 1.779 1.442 3.517 3.134 4.175.826.322 2.009.754 1.783 1.612-.123.471-.659.701-1.14.78a4.383 4.383 0 0 1-3.576-1.029c-.903-.801-1.597-2.047-2.799-2.181-.831-.091-1.597.407-2.359.756-3.109 1.419-6.73.426-9.995-.583.257-1.321 1.585-2.192 2.903-2.456 1.318-.266 2.682-.077 4.027-.113.43.023.858-.087 1.224-.315.328-.301.558-.694.66-1.127a47.268 47.268 0 0 0 1.926-7.876c.434-2.795.615-5.634 1.233-8.396.481-2.155 1.224-4.242 1.862-6.356a134.522 134.522 0 0 0 3.033-13.226 46.82 46.82 0 0 0 .854-5.612c.108-1.565.057-3.137.208-4.696a36.433 36.433 0 0 1 1.265-5.989l1.73-6.403c.854-3.158 1.771-6.438 3.936-8.892a8.368 8.368 0 0 1 6.011-2.87c.43 0 .858.046 1.277.138.07.017.14.034.209.053.457.12.896.3 1.304.54.667-.425 1.007-.276 1.45.378.389.692.572 1.481.528 2.273a31.305 31.305 0 0 1-.513 6.24Z" fill="#FBBEBE"/><path d="m301.267 52.217-.028.028-.153.153-1.516 1.513-.744-3.12-2.548-10.695c.43-.001.858.045 1.277.137.018-.122.048-.243.089-.36l.121.413.863 2.937 1.636 5.576.269.918v.002l.734 2.498Z" fill="#2F49D1"/><path d="M310.89 18.094a7.522 7.522 0 0 1-.579 2.885 7.525 7.525 0 0 1-2.455 3.149 7.508 7.508 0 0 1-4.516 1.512h-9.049c-2-.003-3.916-.799-5.329-2.213a7.539 7.539 0 0 1 0-10.659 7.55 7.55 0 0 1 5.329-2.213h9.049a7.573 7.573 0 0 1 7.55 7.539ZM319.374 18.662a7.73 7.73 0 0 0 7.733-7.729 7.73 7.73 0 0 0-7.733-7.728 7.73 7.73 0 0 0-7.733 7.728 7.73 7.73 0 0 0 7.733 7.73Z" fill="#2F2E41"/><path opacity=".1" d="M319.186 3.205c-.095 0-.189.003-.283.007 2 .072 3.894.918 5.284 2.358a7.722 7.722 0 0 1 0 10.727 7.735 7.735 0 0 1-5.284 2.358c.094.003.188.007.283.007a7.735 7.735 0 0 0 7.733-7.729 7.728 7.728 0 0 0-7.733-7.728ZM282.406 3.205c.095 0 .189.003.283.007a7.73 7.73 0 0 0-7.45 7.721 7.73 7.73 0 0 0 7.45 7.722c-.094.003-.188.007-.283.007a7.736 7.736 0 0 1-5.464-2.266 7.725 7.725 0 0 1 0-10.925 7.736 7.736 0 0 1 5.464-2.266ZM307.857 24.128a7.513 7.513 0 0 1-4.517 1.512h-9.049a7.51 7.51 0 0 1-4.517-1.512h18.083Z" fill="#000"/><path d="M366.29 80.13s1.949 5.615 3.734 4.12l-1.422-7.339-2.312 3.22Z" fill="#FBBEBE"/><path d="M603.523 251.343a12.485 12.485 0 0 0 11.062-1.264 12.462 12.462 0 0 0 1.38-19.868 12.487 12.487 0 0 0-10.78-2.78l.312 6.417-3.038-5.5a12.424 12.424 0 0 0-6.404 7.023 12.465 12.465 0 0 0 7.468 15.972Z" fill="#4BDE97"/><path d="M618.555 325.774c-1.073-5.457 3.574-10.296 8.164-13.441 4.59-3.145 9.953-6.235 11.52-11.572 2.25-7.671-4.454-14.695-9.672-20.753a75.078 75.078 0 0 1-9.905-14.712c-1.085-2.116-2.083-4.328-2.369-6.689-.411-3.4.682-6.784 1.783-10.027a725.477 725.477 0 0 1 11.765-32.141M604.037 249.691a12.484 12.484 0 0 0 15.015-5.395 12.474 12.474 0 0 0 .771-11.101 12.48 12.48 0 0 0-14.124-7.417l.312 6.418-3.038-5.5a12.421 12.421 0 0 0-6.404 7.023 12.206 12.206 0 0 0-.717 3.373 12.46 12.46 0 0 0 8.185 12.599Z" stroke="#161624" stroke-miterlimit="10"/><path d="M617.03 214.223a12.462 12.462 0 0 1 8.979-7.906l1.028 6.101 1.904-6.408a12.475 12.475 0 0 1 11.751 8.846 12.461 12.461 0 0 1-4.852 13.881 12.477 12.477 0 0 1-19.063-6.785 12.463 12.463 0 0 1 .253-7.729Z" fill="#4BDE97"/><path d="M617.715 212.02a12.452 12.452 0 0 1 8.979-7.906l1.027 6.101 1.904-6.408a12.475 12.475 0 0 1 11.752 8.846 12.461 12.461 0 0 1-4.853 13.881 12.474 12.474 0 0 1-19.062-6.785 12.456 12.456 0 0 1 .253-7.729Z" stroke="#161624" stroke-miterlimit="10"/><path d="M626.376 280.132a12.481 12.481 0 0 0 15.422-6.167 12.462 12.462 0 0 0-4.381-16.013l-1.463 4.924-1.038-6.173a12.477 12.477 0 0 0-9.573.411 12.486 12.486 0 0 0-3.925 2.88 12.479 12.479 0 0 0-3.257 8.974 12.462 12.462 0 0 0 4.049 8.646 12.49 12.49 0 0 0 4.166 2.518Z" fill="#4BDE97"/><path d="M626.97 277.9a12.476 12.476 0 0 0 15.422-6.166 12.464 12.464 0 0 0-4.381-16.013l-1.464 4.924-1.037-6.173a12.48 12.48 0 0 0-13.498 3.291 12.471 12.471 0 0 0-3.257 8.973 12.467 12.467 0 0 0 8.215 11.164Z" stroke="#161624" stroke-miterlimit="10"/><path d="M613.389 300.837a12.463 12.463 0 0 0 11.861 10.298 12.466 12.466 0 0 0 12.527-9.477 12.454 12.454 0 0 0-6.696-14.204 12.468 12.468 0 0 0-8.286-.899 12.465 12.465 0 0 0-7.002 4.519l5.558 8.361-7.594-4.438a12.346 12.346 0 0 0-.368 5.84Z" fill="#4BDE97"/><path d="M613.903 299.185a12.462 12.462 0 0 0 11.861 10.298 12.468 12.468 0 0 0 12.527-9.477 12.46 12.46 0 0 0-6.696-14.205 12.477 12.477 0 0 0-15.288 3.621l5.558 8.361-7.594-4.438a12.346 12.346 0 0 0-.368 5.84Z" stroke="#161624" stroke-miterlimit="10"/><path d="M5.4 281.716a8.209 8.209 0 0 0 7.267-.831 8.184 8.184 0 0 0 3.71-6.301 8.188 8.188 0 0 0-2.803-6.753 8.196 8.196 0 0 0-7.083-1.826l.205 4.216-1.996-3.613a8.161 8.161 0 0 0-4.207 4.614A8.187 8.187 0 0 0 5.4 281.716Z" fill="#4BDE97"/><path d="M15.275 330.618c-.705-3.586 2.348-6.764 5.364-8.831 3.016-2.066 6.54-4.096 7.569-7.603 1.478-5.04-2.926-9.655-6.355-13.635a49.345 49.345 0 0 1-6.507-9.666 13.302 13.302 0 0 1-1.557-4.395c-.27-2.234.448-4.457 1.171-6.588a476.704 476.704 0 0 1 7.73-21.117" stroke="#161624" stroke-miterlimit="10"/><path d="M5.737 280.63a8.195 8.195 0 0 0 10.371-10.838 8.19 8.19 0 0 0-5.523-4.793 8.208 8.208 0 0 0-3.757-.08l.205 4.217-1.996-3.614a8.164 8.164 0 0 0-4.207 4.614 8.188 8.188 0 0 0 4.907 10.494Z" stroke="#161624" stroke-miterlimit="10"/><path d="M14.274 257.327a8.183 8.183 0 0 1 5.9-5.194l.674 4.008 1.251-4.21a8.196 8.196 0 0 1 7.72 5.812 8.187 8.187 0 0 1-3.187 9.12 8.196 8.196 0 0 1-12.358-9.536Z" fill="#4BDE97"/><path d="M14.723 255.88a8.193 8.193 0 0 1 5.9-5.195l.674 4.009 1.251-4.21a8.198 8.198 0 0 1 7.721 5.812 8.187 8.187 0 0 1-3.188 9.12 8.203 8.203 0 0 1-9.662-.259 8.188 8.188 0 0 1-2.696-9.277Z" stroke="#161624" stroke-miterlimit="10"/><path d="M20.414 300.63a8.2 8.2 0 0 0 10.133-4.051 8.188 8.188 0 0 0-2.879-10.521l-.961 3.235-.682-4.056a8.206 8.206 0 0 0-6.29.269 8.206 8.206 0 0 0-4.236 4.628 8.19 8.19 0 0 0 4.915 10.496Z" fill="#4BDE97"/><path d="M20.804 299.164a8.2 8.2 0 0 0 10.133-4.051 8.188 8.188 0 0 0-2.879-10.521l-.961 3.235-.682-4.056-.02-.008a8.216 8.216 0 0 0-6.267.281 8.192 8.192 0 0 0-3.953 10.89 8.194 8.194 0 0 0 4.63 4.23Z" stroke="#161624" stroke-miterlimit="10"/><path d="M11.882 314.234A8.187 8.187 0 0 0 19.674 321a8.195 8.195 0 0 0 8.23-6.227 8.184 8.184 0 0 0-4.399-9.332 8.192 8.192 0 0 0-10.044 2.378l3.652 5.494-4.99-2.916a8.11 8.11 0 0 0-.241 3.837Z" fill="#4BDE97"/><path d="M12.219 313.149a8.193 8.193 0 0 0 16.023.539 8.183 8.183 0 0 0-4.4-9.333 8.192 8.192 0 0 0-10.044 2.379l3.652 5.493-4.99-2.915a8.11 8.11 0 0 0-.241 3.837Z" stroke="#161624" stroke-miterlimit="10"/><path d="M288.284 204.355c5.627 0 10.19-5.901 10.19-13.18s-4.563-13.18-10.19-13.18c-5.628 0-10.19 5.901-10.19 13.18s4.562 13.18 10.19 13.18ZM343.729 204.654c5.628 0 10.19-5.9 10.19-13.179s-4.562-13.18-10.19-13.18c-5.628 0-10.19 5.901-10.19 13.18s4.562 13.179 10.19 13.179ZM335.937 230.415c0 5.955-8.32 10.783-18.582 10.783s-18.582-4.828-18.582-10.783c0-5.158 6.24-9.472 14.578-10.526a29.955 29.955 0 0 1 4.004-.257 30.366 30.366 0 0 1 6.672.718c6.965 1.552 11.91 5.476 11.91 10.065Z" fill="#2F2E41"/><path d="M290.681 201.359c5.628 0 10.19-5.9 10.19-13.179S296.309 175 290.681 175c-5.628 0-10.19 5.901-10.19 13.18s4.562 13.179 10.19 13.179ZM346.126 201.659c5.628 0 10.19-5.901 10.19-13.18s-4.562-13.18-10.19-13.18c-5.627 0-10.189 5.901-10.189 13.18s4.562 13.18 10.189 13.18ZM319.753 238.203c10.262 0 18.581-4.828 18.581-10.784 0-5.955-8.319-10.783-18.581-10.783-10.263 0-18.582 4.828-18.582 10.783 0 5.956 8.319 10.784 18.582 10.784Z" stroke="#161624" stroke-miterlimit="10"/><path d="M324.248 221.249a2.957 2.957 0 0 1-.791 2.032 2.612 2.612 0 0 1-1.906.843h-5.995a2.794 2.794 0 0 1-2.697-2.875 2.939 2.939 0 0 1 .492-1.643 28.218 28.218 0 0 1 4.004-.274c2.246-.008 4.485.25 6.671.767.148.365.223.756.222 1.15ZM290.681 187.581a2.996 2.996 0 1 0 .001-5.993 2.996 2.996 0 0 0-.001 5.993ZM346.426 187.581a2.996 2.996 0 1 0 .001-5.993 2.996 2.996 0 0 0-.001 5.993Z" fill="#fff"/><path opacity=".3" d="M349.423 215.737a2.996 2.996 0 1 0 0-5.99 2.996 2.996 0 1 0 0 5.99ZM276.295 215.737a2.996 2.996 0 1 0 0-5.99 2.996 2.996 0 1 0 0 5.99Z" fill="#2F49D1"/></g><defs><clipPath id="a"><path fill="#fff" d="M0 0h644v350H0z"/></clipPath></defs></svg>