<svg width="48" height="48" fill="none" xmlns="http://www.w3.org/2000/svg"><mask id="a" style="mask-type:alpha" maskUnits="userSpaceOnUse" x="0" y="0" width="48" height="48"><rect width="48" height="48" rx="24" fill="#C4C4C4"/></mask><g mask="url(#a)"><mask id="b" style="mask-type:alpha" maskUnits="userSpaceOnUse" x="0" y="0" width="48" height="48"><path fill="#C4C4C4" d="M0 0h48v48H0z"/></mask><g mask="url(#b)"><path fill="#9D93AE" d="M0 0h48v48H0z"/><path d="M21.165.173s-6.056.373-8.53 5.896c-2.53 5.65-.835 8.837-4.106 12.075-3.271 3.238-4.291 7.74-.691 10.449 4.284 3.224 9.428-.51 13.515 1.12 9.636 3.849 21.262-.855 18.642-7.942-1.252-3.385-3.537-2.318-4.704-11.592C34.575 4.475 30.449-1.058 21.165.173Z" fill="#19274B"/><path d="M49 47.62H-1s.671-3.18 1.627-6.375c.957-3.194 2.933-4.533 5.493-5.187.721-.185 2.043-.57 3.57-1.023.862-.259 1.795-.54 2.718-.82 3.22-.979 6.365-1.955 6.365-1.955l5.2-.416.03-.004.03.004 4.691.375s2.822.846 5.902 1.759c2.892.852 6.016 1.764 7.254 2.083 2.56.658 4.536 1.993 5.493 5.188A90.7 90.7 0 0 1 49 47.62Z" fill="#FFAC32"/><path d="M10.596 43.138c-.108 1.513-.35 2.996-1.128 4.482H-.997s.671-3.18 1.628-6.375c.956-3.194 2.932-4.533 5.492-5.187.722-.184 2.044-.57 3.57-1.023.725 1.812 1.1 5.294.903 8.103ZM37.408 43.138c.107 1.513.349 2.996 1.127 4.482H49s-.671-3.18-1.627-6.375c-.956-3.194-2.933-4.533-5.493-5.187-.721-.184-2.043-.57-3.57-1.023-.725 1.812-1.1 5.294-.902 8.103ZM34.626 33.974c-.664 3.57-2.932 10.408-10.569 10.76-8.465.39-11.005-7.592-11.65-10.522 3.222-.98 6.366-1.956 6.366-1.956l5.2-.416.03-.003.03.003 4.691.376s2.819.849 5.902 1.758Z" fill="#FF8881"/><path d="M24.03 38.923c-3.385 0-5.331-1.708-6.371-3.14-1.118-1.54-1.436-3.067-1.447-3.13a.345.345 0 0 1 .675-.138c.007.03.312 1.47 1.345 2.885 1.373 1.883 3.325 2.836 5.798 2.836s4.319-.953 5.48-2.836c.875-1.412 1.02-2.835 1.02-2.848a.343.343 0 0 1 .375-.309.341.341 0 0 1 .309.376c-.007.064-.161 1.597-1.12 3.147-.89 1.436-2.665 3.157-6.064 3.157Z" fill="#9D93AE"/><path d="M24.03 31.837v.003h-.027l.027-.003Z" fill="#5D46C2"/><path d="M24.004 31.84h-.03v-.003l.03.003Z" fill="#5D46C2"/><path d="M28.64 33.491s-1.295 2.422-4.912 2.422c-3.496 0-4.966-2.543-4.966-2.543l.215-1.741.037-.292.336-2.745 8.65.242.144 1.043.047.343.45 3.271Z" fill="#FF8881"/><path d="M28.137 29.877c-1.96 1.661-5.13 2.292-9.163 1.752l.037-.292.335-2.745 8.65.242.141 1.043Z" fill="#19274B"/><path d="M16.098 21.452c-1.936 2.701-6.1.876-5.818-2.707.259-3.252 3.89-2.735 3.89-2.735l1.928 5.442Z" fill="#F55B5D"/><path d="M14.984 21.831a3.803 3.803 0 0 1 2.37 3.52 3.803 3.803 0 0 1-3.799 3.798 3.803 3.803 0 0 1-3.798-3.798 3.808 3.808 0 0 1 3.62-3.795c.04.124.07.252.08.386a3.415 3.415 0 0 0-3.318 3.409 3.415 3.415 0 0 0 3.413 3.412 3.415 3.415 0 0 0 3.412-3.412 3.418 3.418 0 0 0-1.926-3.07l-.054-.45Z" fill="#9D93AE"/><path d="M14.317 21.523a.261.261 0 0 1-.252-.198c-.379-1.54-1.976-2.976-1.99-2.99a.256.256 0 0 1-.02-.365.256.256 0 0 1 .366-.02c.07.063 1.735 1.556 2.15 3.25a.258.258 0 0 1-.187.313.273.273 0 0 1-.067.01Z" fill="#D1373F"/><path d="M13.652 20.06a.225.225 0 0 1-.08-.014 2.863 2.863 0 0 0-1.39-.09.262.262 0 0 1-.308-.195.262.262 0 0 1 .195-.308c.033-.007.818-.178 1.667.107a.26.26 0 0 1 .165.325.266.266 0 0 1-.249.175Z" fill="#D1373F"/><path d="M30.422 21.452c1.936 2.701 6.1.876 5.818-2.707-.258-3.252-3.889-2.735-3.889-2.735l-1.929 5.442Z" fill="#F55B5D"/><path d="M32.006 21.831a3.803 3.803 0 0 0-2.37 3.52 3.803 3.803 0 0 0 3.799 3.798 3.803 3.803 0 0 0 3.798-3.798 3.808 3.808 0 0 0-3.62-3.795c-.04.124-.07.252-.08.386a3.415 3.415 0 0 1 3.318 3.409 3.415 3.415 0 0 1-3.413 3.412 3.415 3.415 0 0 1-3.412-3.412c0-1.349.788-2.517 1.926-3.07l.054-.45Z" fill="#9D93AE"/><path d="M32.204 21.523c-.02 0-.04-.004-.06-.007a.256.256 0 0 1-.189-.312c.416-1.694 2.08-3.19 2.151-3.251a.263.263 0 0 1 .366.02.263.263 0 0 1-.02.366c-.017.013-1.614 1.45-1.99 2.99a.28.28 0 0 1-.258.194Z" fill="#D1373F"/><path d="M32.868 20.06a.258.258 0 0 1-.245-.178.257.257 0 0 1 .164-.326c.85-.285 1.634-.114 1.668-.107a.259.259 0 0 1-.114.503 2.913 2.913 0 0 0-1.39.091.188.188 0 0 1-.083.017Z" fill="#D1373F"/><path d="M13.4 12.061s-.945 5.858 1.504 11.59c2.218 5.193 5.17 6.81 8.314 6.86 3.574.058 11.056-2.01 9.871-18.963C32.288.093 14.347.496 13.401 12.06Z" fill="#FF8881"/><path d="M32.868 12.658c-4.832.125-8.207-1.167-10.378-2.49.886 1.219 2.389 1.99 2.389 1.99-3.114.796-5.13-2.164-5.992-3.835-2.302 3.59-5.604 5.302-5.604 5.302-2-12.193 6.58-13.207 13.545-12.546 6.51.621 9.76 11.482 6.04 11.58Z" fill="#19274B"/><path d="M16.028 11.242s-1.711 3.393-1.148 6.902c.544 3.386.299 6.637-1.372 7.21 0 0 1.134-1.623.1-4.418-1.033-2.795-1.308-6.5-.62-8.21.688-1.712 3.04-1.484 3.04-1.484ZM30.744 11.242s1.711 3.393 1.148 6.902c-.544 3.386-.3 6.637 1.372 7.21 0 0-1.134-1.623-.1-4.418 1.033-2.795 1.308-6.5.62-8.21-.688-1.712-3.04-1.484-3.04-1.484ZM16.736 15.03s1.369-1.905 3.728-2.15a.682.682 0 0 1 .744.637v.007a.686.686 0 0 1-.674.725c-.886.01-2.44.137-3.798.781ZM29.97 15.03s-1.37-1.905-3.729-2.15a.682.682 0 0 0-.744.637v.007a.686.686 0 0 0 .674.725c.886.01 2.442.137 3.798.781Z" fill="#19274B"/><path d="M23.661 27.472a3.589 3.589 0 0 1-1.355-.275.216.216 0 0 1-.108-.286.215.215 0 0 1 .285-.107c.02.007 1.346.587 2.406-.11a.219.219 0 0 1 .299.06c.064.1.037.231-.06.298-.49.319-1.007.42-1.467.42ZM24.423 21.99h-.017l-1.574-.128a.217.217 0 0 1-.198-.231.217.217 0 0 1 .232-.198l1.315.107-.41-4a.212.212 0 0 1 .192-.234.212.212 0 0 1 .235.19l.436 4.255a.213.213 0 0 1-.06.171.199.199 0 0 1-.151.067Z" fill="#F55B5D"/><path d="M20.286 23.704c1.936.302 3.905.433 6.542-.09 0 0-.228 2.818-3.358 2.828-2.664.01-3.184-2.738-3.184-2.738Z" fill="#9D93AE"/><path d="M20.131 17.517c0 .745-.338 1.352-.758 1.352s-.758-.604-.758-1.352c0-.745.339-1.352.758-1.352.42 0 .758.607.758 1.352ZM28.187 17.517c0 .745-.338 1.352-.758 1.352s-.758-.604-.758-1.352c0-.745.339-1.352.758-1.352.416 0 .758.607.758 1.352Z" fill="#19274B"/><path d="M17.363 20.288a.232.232 0 0 1-.463 0c0-.127.104-.231.232-.231.127-.004.231.1.231.231ZM18.497 20.849a.232.232 0 0 1-.462 0 .232.232 0 0 1 .462 0ZM17.363 21.654a.232.232 0 0 1-.463 0 .232.232 0 0 1 .463 0ZM18.914 22.12a.232.232 0 1 0 0-.463.232.232 0 0 0 0 .463ZM20.101 21.885a.232.232 0 1 0 0-.463.232.232 0 0 0 0 .463ZM19.793 20.52a.232.232 0 0 1-.463 0 .232.232 0 0 1 .463 0ZM30.127 20.52a.232.232 0 1 0 0-.463.232.232 0 0 0 0 .463ZM28.993 21.08a.232.232 0 1 0 0-.463.232.232 0 0 0 0 .463ZM30.127 21.885a.232.232 0 1 0 0-.463.232.232 0 0 0 0 .463ZM28.342 22.12a.232.232 0 1 0 0-.463.232.232 0 0 0 0 .463ZM26.922 21.654a.232.232 0 0 0 .463 0 .232.232 0 0 0-.463 0ZM27.694 20.751a.232.232 0 1 0 0-.463.232.232 0 0 0 0 .463Z" fill="#F55B5D"/></g></g></svg>