<svg width="110" height="77" fill="none" xmlns="http://www.w3.org/2000/svg"><path opacity=".6" d="m75.4514 38.1857 23.5465-6.727v30.5931c-.0034 1.2238-.414 2.4117-1.1671 3.3763-.7531.9647-1.8058 1.6513-2.9922 1.9517L57.6455 76.678c-1.75.4297-3.578.4297-5.3281 0l-37.1518-9.2982c-1.1902-.2944-2.2474-.9793-3.0026-1.9451-.7552-.9658-1.1649-2.1569-1.1636-3.3829V31.4587l23.5465 6.7373c.7418.2201 1.512.3302 2.2859.3266 1.4356-.0041 2.846-.3779 4.0953-1.0853 1.2493-.7075 2.2953-1.7247 3.0374-2.9537l11.0341-18.3215L66.05 34.4836c.7405 1.2253 1.7843 2.239 3.0306 2.9435 1.2464.7045 2.6533 1.0758 4.0849 1.0783.7735.0058 1.5437-.1019 2.2859-.3197Z" fill="#5887FF"/><path d="m109.712 19.228-8.851-17.67525c-.26-.52142-.677-.948853-1.1909-1.222962-.5144-.2741088-1.1013-.3813005-1.6793-.306696L54.9987 5.50579 70.7593 31.6474c.3202.5277.8044.9361 1.3786 1.1627.5742.2265 1.2068.2589 1.8011.092l34.013-9.7108c.398-.1143.765-.3142 1.077-.5857.311-.2715.56-.6079.727-.9856.168-.3778.251-.7877.244-1.2009-.008-.4132-.106-.8198-.288-1.1911ZM9.15004 1.55275.298623 19.228c-.185276.3684-.2869189.7733-.2976707 1.1855-.01075176.4123.0696527.8219.2354727 1.1995.16582.3776.412965.7139.723789.985.310826.271.677656.4701 1.074316.583L36.048 32.8918c.5943.1668 1.2269.1345 1.8011-.092.5742-.2266 1.0584-.635 1.3786-1.1627l15.771-26.13131L12.0031.029967c-.5745-.071192-1.157.0369043-1.6677.309494-.51074.27259-.92474.696349-1.18536 1.213289Z" fill="#2F49D1"/><g opacity=".2" stroke="#fff" stroke-width="1.5" stroke-linecap="round" stroke-linejoin="round"><path d="M83.5884 58.6127v-1.3496c0-.7158-.2724-1.3252-.7572-1.6939-.4848-.3688-1.1424-.4669-1.828-.2725l-5.1704 1.4653c-.6857.1943-1.3432.665-1.8281 1.3086-.4848.6436-.7571 1.4073-.7571 2.1232v1.3495M78.417 53.3302c1.4278-.4047 2.5852-1.9411 2.5852-3.4318s-1.1574-2.3711-2.5852-1.9665c-1.4278.4046-2.5852 1.9411-2.5852 3.4318s1.1574 2.3711 2.5852 1.9665Z"/></g><mask id="a" style="mask-type:alpha" maskUnits="userSpaceOnUse" x="10" y="16" width="89" height="62"><path opacity=".6" d="m75.4514 38.1857 23.5465-6.727v30.5931c-.0034 1.2238-.414 2.4117-1.1671 3.3763-.7531.9647-1.8058 1.6513-2.9922 1.9517L57.6455 76.678c-1.75.4297-3.578.4297-5.3281 0l-37.1518-9.2982c-1.1902-.2944-2.2474-.9793-3.0026-1.9451-.7552-.9658-1.1649-2.1569-1.1636-3.3829V31.4587l23.5465 6.7373c.7418.2201 1.512.3302 2.2859.3266 1.4356-.0041 2.846-.3779 4.0953-1.0853 1.2493-.7075 2.2953-1.7247 3.0374-2.9537l11.0341-18.3215L66.05 34.4836c.7405 1.2253 1.7843 2.239 3.0306 2.9435 1.2464.7045 2.6533 1.0758 4.0849 1.0783.7735.0058 1.5437-.1019 2.2859-.3197Z" fill="#F26464"/></mask><g mask="url(#a)"><path opacity=".37" d="M54.0894 15.0986h1.5024v63.3623l-.7512.0495-.7512-.0495V15.0986Z" fill="#2F49D1"/></g></svg>