<svg width="58" height="58" fill="none" xmlns="http://www.w3.org/2000/svg"><path d="M34.4398 9.06161c-3.3543.00002-6.6048 1.16309-9.1977 3.29109-2.593 2.1279-4.3678 5.0891-5.0222 8.379-.6544 3.2899-.1478 6.7049 1.4334 9.6631 1.5813 2.9583 4.1393 5.2767 7.2383 6.5603 3.099 1.2837 6.5472 1.4531 9.7571.4793 3.2099-.9737 5.9828-3.0303 7.8464-5.8193 1.8635-2.789 2.7023-6.1379 2.3736-9.4761-.3288-3.3382-1.8049-6.459-4.1768-8.8309-1.3431-1.3506-2.9409-2.4213-4.7006-3.1503-1.7598-.72888-3.6467-1.10148-5.5515-1.09619Zm0-9.06161C47.4523 0 58 10.5477 58 23.5602c0 13.0124-10.5477 23.5602-23.5602 23.5602-13.0124 0-23.5602-10.5478-23.5602-23.5602C10.8796 10.5477 21.4274 0 34.4398 0Z" fill="#FC5050"/><path opacity=".6" d="M.788774 50.1448 12.0818 38.8517c.2531-.2522.5535-.452.8839-.5881.3304-.1361.6844-.2056 1.0417-.2048h1.8463l4.0777 4.0778v1.8463c.0009.3573-.0687.7113-.2047 1.0417-.1361.3304-.3359.6308-.5882.8839l-11.293 11.293c-.25159.2531-.55073.4539-.88023.591-.32949.137-.68283.2076-1.0397.2076-.35686 0-.7102-.0706-1.03969-.2076-.3295-.1371-.62865-.3379-.88024-.591L.800102 53.996c-.510317-.5103-.79796386-1.2017-.80008674-1.9233-.00212097-.7216.28145174-1.4147.78875874-1.9279Z" fill="#FC5050"/><path d="M31.9026 27.1034v-4.497h2.4036c.9132 0 1.5937-.2413 2.0417-.7237.448-.4997.672-1.1027.672-1.8091 0-.4997-.1034-.9305-.3102-1.2923-.1895-.379-.4738-.672-.8528-.8787-.3619-.224-.8012-.336-1.3181-.336-.5514 0-1.0166.1206-1.3957.3618-.379.224-.6719.5255-.8787.9046-.2067.3791-.3101.8098-.3101 1.2922H28c0-1.1371.2498-2.1623.7495-3.0755.5169-.9304 1.275-1.6713 2.2744-2.2227.9993-.5513 2.2054-.827 3.6183-.827 1.3094 0 2.438.2498 3.3856.7495.9477.4824 1.68 1.1544 2.1969 2.0159.5169.8615.7753 1.8522.7753 2.9722v.3101c0 1.1027-.2671 2.0762-.8012 2.9205-.5169.827-1.275 1.4818-2.2743 1.9642-.9994.4652-2.2141.715-3.6442.7495l1.7833-1.4215-.0517 2.843h-4.1093Z" fill="#FC5050"/><path opacity=".6" d="M31.5925 29.2744v4.161h4.7037v-4.161h-4.7037Z" fill="#FC5050"/></svg>